<svg xmlns="http://www.w3.org/2000/svg" xmlns:xlink="http://www.w3.org/1999/xlink" xmlns:lucid="lucid" width="1183.01" height="1127.33"><g transform="translate(-620 -64.66666666666657)" lucid:page-tab-id="8UhbxitR1Jum"><path d="M1340 510c0 104.88-103.04 190-230 190s-230-85.12-230-190 103.04-190 230-190 230 85.12 230 190z" stroke="#e5e5e5" stroke-width="4" fill-opacity="0"/><path d="M1059 548.33c0-2.76 2.24-5 5-5h90c2.76 0 5 2.24 5 5v54c0 2.76-2.24 5-5 5h-90c-2.76 0-5-2.24-5-5z" stroke="#000" stroke-width="2" fill="#ffdf71"/><use xlink:href="#a" transform="matrix(1,0,0,1,1067,551.3333333333334) translate(5.524999999999999 16.799999999999997)"/><use xlink:href="#b" transform="matrix(1,0,0,1,1067,551.3333333333334) translate(12.549999999999997 38.4)"/><path d="M976.5 445.33c0-2.76 2.24-5 5-5h255c2.76 0 5 2.24 5 5v30.34c0 2.76-2.24 5-5 5h-255c-2.76 0-5-2.24-5-5z" stroke="#000" stroke-width="2" fill="#f5b5c8"/><use xlink:href="#c" transform="matrix(1,0,0,1,984.5,448.3333333333334) translate(51.07499999999999 16.1)"/><use xlink:href="#d" transform="matrix(1,0,0,1,984.5,448.3333333333334) translate(129.02499999999998 16.1)"/><path d="M917.92 548.33c0-2.76 2.24-5 5-5h110c2.76 0 5 2.24 5 5v54c0 2.76-2.24 5-5 5h-110c-2.76 0-5-2.24-5-5z" stroke="#000" stroke-width="2" fill="#ffdf71"/><use xlink:href="#e" transform="matrix(1,0,0,1,925.9166666666666,551.3333333333334) translate(2.5249999999999986 16.799999999999997)"/><use xlink:href="#f" transform="matrix(1,0,0,1,925.9166666666666,551.3333333333334) translate(86.475 16.799999999999997)"/><use xlink:href="#g" transform="matrix(1,0,0,1,925.9166666666666,551.3333333333334) translate(2.0999999999999943 38.4)"/><path d="M1180.08 547.83c0-2.76 2.24-5 5-5h107.34c2.76 0 5 2.24 5 5v54c0 2.76-2.24 5-5 5h-107.34c-2.76 0-5-2.24-5-5z" stroke="#000" stroke-width="2" fill="#ffdf71"/><use xlink:href="#e" transform="matrix(1,0,0,1,1188.0833333333335,550.8333333333334) translate(1.5249999999999986 16.799999999999997)"/><use xlink:href="#f" transform="matrix(1,0,0,1,1188.0833333333335,550.8333333333334) translate(85.475 16.799999999999997)"/><use xlink:href="#h" transform="matrix(1,0,0,1,1188.0833333333335,550.8333333333334) translate(11.024999999999999 38.4)"/><path d="M780 492.67c0-2.76 2.24-5 5-5h90c2.76 0 5 2.24 5 5v34.66c0 2.76-2.24 5-5 5h-90c-2.76 0-5-2.24-5-5z" stroke="#000" stroke-opacity="0" stroke-width="2" fill="#fff" fill-opacity="0"/><use xlink:href="#i" transform="matrix(1,0,0,1,785,492.6666666666667) translate(13.783950617283956 23.27777777777778)"/><path d="M829 825c0-2.76 2.24-5 5-5h550c2.76 0 5 2.24 5 5v150c0 2.76-2.24 5-5 5H834c-2.76 0-5-2.24-5-5z" stroke="#e5e5e5" stroke-width="4" fill="none"/><path d="M858 845c0-2.76 2.24-5 5-5h230c2.76 0 5 2.24 5 5v30.33c0 2.76-2.24 5-5 5H863c-2.76 0-5-2.24-5-5z" stroke="#000" stroke-width="2" fill="#a3d977"/><use xlink:href="#j" transform="matrix(1,0,0,1,866,848) translate(62.099999999999994 16.1)"/><path d="M1119 845c0-2.76 2.24-5 5-5h230c2.76 0 5 2.24 5 5v30.33c0 2.76-2.24 5-5 5h-230c-2.76 0-5-2.24-5-5z" stroke="#000" stroke-width="2" fill="#a3d977"/><use xlink:href="#k" transform="matrix(1,0,0,1,1127,848) translate(72.025 16.1)"/><path d="M858 925c0-2.76 2.24-5 5-5h230c2.76 0 5 2.24 5 5v30.33c0 2.76-2.24 5-5 5H863c-2.76 0-5-2.24-5-5z" stroke="#000" stroke-width="2" fill="#99d2f2"/><use xlink:href="#l" transform="matrix(1,0,0,1,866,928) translate(61.525 16.1)"/><use xlink:href="#m" transform="matrix(1,0,0,1,866,928) translate(104.475 16.1)"/><path d="M640 882.67c0-2.76 2.24-5 5-5h170c2.76 0 5 2.24 5 5v34.66c0 2.76-2.24 5-5 5H645c-2.76 0-5-2.24-5-5z" stroke="#000" stroke-opacity="0" stroke-width="2" fill="#fff" fill-opacity="0"/><use xlink:href="#n" transform="matrix(1,0,0,1,645,882.6666666666667) translate(0.0586419753086318 23.27777777777778)"/><path d="M1211.5 84.67c16.57 0 30 13.43 30 30V190c0 16.57-13.43 30-30 30h-205c-16.57 0-30-13.43-30-30v-75.33c0-16.57 13.43-30 30-30z" stroke="#e5e5e5" stroke-width="4" fill="none"/><path d="M989 174.33c0-2.76 2.24-5 5-5h230c2.76 0 5 2.24 5 5v30.34c0 2.76-2.24 5-5 5H994c-2.76 0-5-2.24-5-5z" stroke="#000" stroke-width="2" fill="#a3d977"/><use xlink:href="#o" transform="matrix(1,0,0,1,997,177.33199334673327) translate(68.625 16.1)"/><path d="M989 105c0-2.76 2.24-5 5-5h230c2.76 0 5 2.24 5 5v30.33c0 2.76-2.24 5-5 5H994c-2.76 0-5-2.24-5-5z" stroke="#000" stroke-width="2" fill="#99d2f2"/><use xlink:href="#p" transform="matrix(1,0,0,1,997,108) translate(61.825 16.1)"/><use xlink:href="#q" transform="matrix(1,0,0,1,997,108) translate(103.425 16.1)"/><path d="M1109.03 224.5l.67 64.57" stroke="#e5e5e5" stroke-width="5" fill="none"/><path d="M1111.53 224.54l-5 .05-.03-2.6h5z" fill="#e5e5e5"/><path d="M1109.95 313.1L1097 291.7l25.45-.26z" stroke="#e5e5e5" stroke-width="5" fill="#fff"/><path d="M1109.02 815.5l.73-84.57" stroke="#e5e5e5" stroke-width="5" fill="none"/><path d="M1111.52 815.46l-.02 2.54h-5l.02-2.6z" fill="#e5e5e5"/><path d="M1109.96 706.9l12.54 21.64-25.45-.22z" stroke="#e5e5e5" stroke-width="5" fill="#fff"/><path d="M1109 142.33v7.5" stroke="#e5e5e5" stroke-width="2" fill="none"/><path d="M1110 142.36h-2v-1.03h2z" fill="#e5e5e5"/><path d="M1109 165.1l-4.64-14.27h9.28z" stroke="#e5e5e5" stroke-width="2" fill="#e5e5e5"/><path d="M1109 482.67v41.16" stroke="#e5e5e5" stroke-width="2" fill="none"/><path d="M1110 482.7h-2v-1.03h2z" fill="#e5e5e5"/><path d="M1109 539.1l-4.64-14.27h9.28z" stroke="#e5e5e5" stroke-width="2" fill="#e5e5e5"/><path d="M1109.87 482.15l91.64 50.72" stroke="#e5e5e5" stroke-width="2" fill="none"/><path d="M1109.4 483.04l-2.46-1.37h3.23z" fill="#e5e5e5"/><path d="M1214.86 540.27l-14.72-2.86 4.5-8.1z" stroke="#e5e5e5" stroke-width="2" fill="#e5e5e5"/><path d="M1108.1 482.1l-113.4 52.46" stroke="#e5e5e5" stroke-width="2" fill="none"/><path d="M1108.5 483l-.63-1.33h3.5zM995.75 539.2l-14.9 1.77 11-10.2z" fill="#e5e5e5"/><path d="M997.23 540.02l-19.3 2.3 14.25-13.2zm-13.44-.4l10.46-1.26-2.74-5.92z" fill="#e5e5e5"/><path d="M1168.9 211.67V340.5" stroke="#e5e5e5" stroke-width="2" fill="none"/><path d="M1169.9 211.7h-2v-1.03h2z" fill="#e5e5e5"/><path d="M1168.9 355.76l-4.63-14.26h9.27z" stroke="#e5e5e5" stroke-width="2" fill="#e5e5e5"/><path d="M1037.92 1128c0 6.63-26.87 12-60 12-33.14 0-60-5.37-60-12v-96c0-6.63 26.86-12 60-12 33.13 0 60 5.37 60 12z" stroke="#000" stroke-width="2" fill="#99d2f2"/><path d="M1037.92 1032c0 6.63-26.87 12-60 12-33.14 0-60-5.37-60-12" stroke="#000" stroke-width="2" fill="none"/><use xlink:href="#r" transform="matrix(1,0,0,1,922.9166666666665,1049) translate(16.525 46.6)"/><path d="M1318.75 1020c-8.84 0-16 26.86-16 60s7.16 60 16 60h-143.99c-8.84 0-16-26.86-16-60s7.16-60 16-60z" stroke="#000" stroke-width="2" fill="#99d2f2"/><use xlink:href="#p" transform="matrix(1,0,0,1,1163.75,1025) translate(24.25 58.6)"/><use xlink:href="#s" transform="matrix(1,0,0,1,1163.75,1025) translate(65.85 58.6)"/><path d="M1239 882.33l-.22 118.17" stroke="#e5e5e5" stroke-width="2" fill="none"/><path d="M1240 882.36h-2v-1.03h2z" fill="#e5e5e5"/><path d="M1238.76 1015.76l-4.6-14.27h9.26z" stroke="#e5e5e5" stroke-width="2" fill="#e5e5e5"/><path d="M978 962.33l-.06 38.17" stroke="#e5e5e5" stroke-width="2" fill="none"/><path d="M979 962.36h-2v-1.03h2z" fill="#e5e5e5"/><path d="M977.92 1015.76l-4.6-14.27h9.26z" stroke="#e5e5e5" stroke-width="2" fill="#e5e5e5"/><path d="M978 882.33v18.17" stroke="#e5e5e5" stroke-width="2" fill="none"/><path d="M979 882.36h-2v-1.03h2z" fill="#e5e5e5"/><path d="M978 915.76l-4.64-14.26h9.28z" stroke="#e5e5e5" stroke-width="2" fill="#e5e5e5"/><path d="M978 838l-.07-205.18" stroke="#e5e5e5" stroke-width="2" fill="none"/><path d="M979 839h-2v-1.03h2z" fill="#e5e5e5"/><path d="M977.92 610.3l12.73 21.5-25.45.02z" stroke="#e5e5e5" stroke-width="2" fill="#fff"/><path d="M1239 838l-.22-205.68" stroke="#e5e5e5" stroke-width="2" fill="none"/><path d="M1240 839h-2v-1.02h2z" fill="#e5e5e5"/><path d="M1238.75 609.8l12.75 21.5-25.45.03z" stroke="#e5e5e5" stroke-width="2" fill="#fff"/><path d="M976.5 365c0-2.76 2.24-5 5-5h255c2.76 0 5 2.24 5 5v30.33c0 2.76-2.24 5-5 5h-255c-2.76 0-5-2.24-5-5z" stroke="#000" stroke-width="2" fill="#f5b5c8"/><use xlink:href="#c" transform="matrix(1,0,0,1,984.5,368) translate(9.099999999999994 16.1)"/><use xlink:href="#t" transform="matrix(1,0,0,1,984.5,368) translate(87.05 16.1)"/><use xlink:href="#u" transform="matrix(1,0,0,1,984.5,368) translate(160.95000000000002 16.1)"/><path d="M1109 438.33v-12.5" stroke="#e5e5e5" stroke-width="2" fill="none"/><path d="M1110 439.33h-2v-1.02h2z" fill="#e5e5e5"/><path d="M1109 403.3l12.73 21.52h-25.46z" stroke="#e5e5e5" stroke-width="2" fill="#fff"/><path d="M1560 440.33c16.57 0 30 13.43 30 30V530c0 16.57-13.43 30-30 30h-140c-16.57 0-30-13.43-30-30v-59.67c0-16.57 13.43-30 30-30z" stroke="#e5e5e5" stroke-width="4" fill="none"/><path d="M1428 471c0-2.76 2.24-5 5-5h130c2.76 0 5 2.24 5 5v70c0 2.76-2.24 5-5 5h-130c-2.76 0-5-2.24-5-5z" stroke="#fff" stroke-width="2" fill="#642766"/><use xlink:href="#v" transform="matrix(1,0,0,1,1433,471.0000000000005) translate(8.674999999999997 38.6)"/><path d="M1600 485.67c0-2.76 2.24-5 5-5h170c2.76 0 5 2.24 5 5v34.66c0 2.76-2.24 5-5 5h-170c-2.76 0-5-2.24-5-5z" stroke="#000" stroke-opacity="0" stroke-width="2" fill="#fff" fill-opacity="0"/><use xlink:href="#w" transform="matrix(1,0,0,1,1605,485.6666666666668) translate(-3.9938271604938365 23.27777777777778)"/><path d="M1244.5 152.33H1485c2.76 0 5 2.24 5 5v262.5" stroke="#e5e5e5" stroke-width="2" fill="none"/><path d="M1244.53 153.33h-1.03v-2h1.03z" fill="#e5e5e5"/><path d="M1490 435.1l-4.64-14.27h9.28z" stroke="#e5e5e5" stroke-width="2" fill="#e5e5e5"/><path d="M1426 506h-65.56" stroke="#e5e5e5" stroke-width="2" fill="none"/><path d="M1427 507h-1.03v-2h1.03z" fill="#e5e5e5"/><path d="M1345.18 506l14.26-4.64v9.28z" stroke="#e5e5e5" stroke-width="2" fill="#e5e5e5"/><path d="M1446 548v347c0 2.76-2.24 5-5 5h-31.5" stroke="#e5e5e5" stroke-width="2" fill="none"/><path d="M1447 548.03h-2V547h2z" fill="#e5e5e5"/><path d="M1394.24 900l14.26-4.64v9.28z" stroke="#e5e5e5" stroke-width="2" fill="#e5e5e5"/><path d="M1552.67 548v628c0 2.76-2.24 5-5 5H982.92c-2.76 0-5-2.24-5-5v-16.5" stroke="#e5e5e5" stroke-width="2" fill="none"/><path d="M1553.67 548.03h-2V547h2z" fill="#e5e5e5"/><path d="M977.92 1144.24l4.63 14.26h-9.27z" stroke="#e5e5e5" stroke-width="2" fill="#e5e5e5"/><path d="M1498 548v527c0 2.76-2.24 5-5 5h-170.75" stroke="#e5e5e5" stroke-width="2" fill="none"/><path d="M1499 548.03h-2V547h2z" fill="#e5e5e5"/><path d="M1307 1080l14.25-4.64v9.28z" stroke="#e5e5e5" stroke-width="2" fill="#e5e5e5"/><path d="M900 132.17h66.08v40.33H900z" stroke="#000" stroke-opacity="0" stroke-width="2" fill="#fff" fill-opacity="0"/><g><use xlink:href="#x" transform="matrix(1,0,0,1,905,137.1666666666666) translate(-1.1512345679012306 23.111111111111114)"/></g><defs><path d="M160-131c35 5 61 23 61 61C221 17 115-2 30 0v-248c76 3 177-17 177 60 0 33-19 50-47 57zm-97-11c50-1 110 9 110-42 0-47-63-36-110-37v79zm0 115c55-2 124 14 124-45 0-56-70-42-124-44v89" id="y"/><path d="M84 4C-5 8 30-112 23-190h32v120c0 31 7 50 39 49 72-2 45-101 50-169h31l1 190h-30c-1-10 1-25-2-33-11 22-28 36-60 37" id="z"/><path d="M135-143c-3-34-86-38-87 0 15 53 115 12 119 90S17 21 10-45l28-5c4 36 97 45 98 0-10-56-113-15-118-90-4-57 82-63 122-42 12 7 21 19 24 35" id="A"/><path d="M24-231v-30h32v30H24zM24 0v-190h32V0H24" id="B"/><path d="M117-194c89-4 53 116 60 194h-32v-121c0-31-8-49-39-48C34-167 62-67 57 0H25l-1-190h30c1 10-1 24 2 32 11-22 29-35 61-36" id="C"/><path d="M100-194c63 0 86 42 84 106H49c0 40 14 67 53 68 26 1 43-12 49-29l28 8c-11 28-37 45-77 45C44 4 14-33 15-96c1-61 26-98 85-98zm52 81c6-60-76-77-97-28-3 7-6 17-6 28h103" id="D"/><g id="a"><use transform="matrix(0.05,0,0,0.05,0,0)" xlink:href="#y"/><use transform="matrix(0.05,0,0,0.05,12,0)" xlink:href="#z"/><use transform="matrix(0.05,0,0,0.05,22,0)" xlink:href="#A"/><use transform="matrix(0.05,0,0,0.05,31,0)" xlink:href="#B"/><use transform="matrix(0.05,0,0,0.05,34.95,0)" xlink:href="#C"/><use transform="matrix(0.05,0,0,0.05,44.95,0)" xlink:href="#D"/><use transform="matrix(0.05,0,0,0.05,54.95,0)" xlink:href="#A"/><use transform="matrix(0.05,0,0,0.05,63.95,0)" xlink:href="#A"/></g><path d="M30 0v-248h187v28H63v79h144v27H63v87h162V0H30" id="E"/><path d="M59-47c-2 24 18 29 38 22v24C64 9 27 4 27-40v-127H5v-23h24l9-43h21v43h35v23H59v120" id="F"/><g id="b"><use transform="matrix(0.05,0,0,0.05,0,0)" xlink:href="#E"/><use transform="matrix(0.05,0,0,0.05,12,0)" xlink:href="#C"/><use transform="matrix(0.05,0,0,0.05,22,0)" xlink:href="#F"/><use transform="matrix(0.05,0,0,0.05,27,0)" xlink:href="#B"/><use transform="matrix(0.05,0,0,0.05,30.950000000000003,0)" xlink:href="#F"/><use transform="matrix(0.05,0,0,0.05,35.95,0)" xlink:href="#B"/><use transform="matrix(0.05,0,0,0.05,39.900000000000006,0)" xlink:href="#D"/><use transform="matrix(0.05,0,0,0.05,49.900000000000006,0)" xlink:href="#A"/></g><g id="c"><use transform="matrix(0.05,0,0,0.05,0,0)" xlink:href="#y"/><use transform="matrix(0.05,0,0,0.05,12,0)" xlink:href="#z"/><use transform="matrix(0.05,0,0,0.05,22,0)" xlink:href="#A"/><use transform="matrix(0.05,0,0,0.05,31,0)" xlink:href="#B"/><use transform="matrix(0.05,0,0,0.05,34.95,0)" xlink:href="#C"/><use transform="matrix(0.05,0,0,0.05,44.95,0)" xlink:href="#D"/><use transform="matrix(0.05,0,0,0.05,54.95,0)" xlink:href="#A"/><use transform="matrix(0.05,0,0,0.05,63.95,0)" xlink:href="#A"/></g><path d="M185-189c-5-48-123-54-124 2 14 75 158 14 163 119 3 78-121 87-175 55-17-10-28-26-33-46l33-7c5 56 141 63 141-1 0-78-155-14-162-118-5-82 145-84 179-34 5 7 8 16 11 25" id="G"/><path d="M114-163C36-179 61-72 57 0H25l-1-190h30c1 12-1 29 2 39 6-27 23-49 58-41v29" id="H"/><path d="M108 0H70L1-190h34L89-25l56-165h34" id="I"/><path d="M96-169c-40 0-48 33-48 73s9 75 48 75c24 0 41-14 43-38l32 2c-6 37-31 61-74 61-59 0-76-41-82-99-10-93 101-131 147-64 4 7 5 14 7 22l-32 3c-4-21-16-35-41-35" id="J"/><g id="d"><use transform="matrix(0.05,0,0,0.05,0,0)" xlink:href="#G"/><use transform="matrix(0.05,0,0,0.05,12,0)" xlink:href="#D"/><use transform="matrix(0.05,0,0,0.05,22,0)" xlink:href="#H"/><use transform="matrix(0.05,0,0,0.05,27.950000000000003,0)" xlink:href="#I"/><use transform="matrix(0.05,0,0,0.05,36.95,0)" xlink:href="#B"/><use transform="matrix(0.05,0,0,0.05,40.900000000000006,0)" xlink:href="#J"/><use transform="matrix(0.05,0,0,0.05,49.900000000000006,0)" xlink:href="#D"/><use transform="matrix(0.05,0,0,0.05,59.900000000000006,0)" xlink:href="#A"/></g><path d="M33 0v-248h34V0H33" id="K"/><path d="M101-234c-31-9-42 10-38 44h38v23H63V0H32v-167H5v-23h27c-7-52 17-82 69-68v24" id="L"/><path d="M141-36C126-15 110 5 73 4 37 3 15-17 15-53c-1-64 63-63 125-63 3-35-9-54-41-54-24 1-41 7-42 31l-33-3c5-37 33-52 76-52 45 0 72 20 72 64v82c-1 20 7 32 28 27v20c-31 9-61-2-59-35zM48-53c0 20 12 33 32 33 41-3 63-29 60-74-43 2-92-5-92 41" id="M"/><g id="e"><use transform="matrix(0.05,0,0,0.05,0,0)" xlink:href="#K"/><use transform="matrix(0.05,0,0,0.05,5,0)" xlink:href="#C"/><use transform="matrix(0.05,0,0,0.05,15,0)" xlink:href="#F"/><use transform="matrix(0.05,0,0,0.05,20,0)" xlink:href="#D"/><use transform="matrix(0.05,0,0,0.05,30,0)" xlink:href="#H"/><use transform="matrix(0.05,0,0,0.05,35.95,0)" xlink:href="#L"/><use transform="matrix(0.05,0,0,0.05,40.95,0)" xlink:href="#M"/><use transform="matrix(0.05,0,0,0.05,50.95,0)" xlink:href="#J"/><use transform="matrix(0.05,0,0,0.05,59.95,0)" xlink:href="#D"/><use transform="matrix(0.05,0,0,0.05,69.95,0)" xlink:href="#A"/></g><path d="M100-194c62-1 85 37 85 99 1 63-27 99-86 99S16-35 15-95c0-66 28-99 85-99zM99-20c44 1 53-31 53-75 0-43-8-75-51-75s-53 32-53 75 10 74 51 75" id="N"/><g id="f"><use transform="matrix(0.05,0,0,0.05,0,0)" xlink:href="#F"/><use transform="matrix(0.05,0,0,0.05,5,0)" xlink:href="#N"/></g><path d="M233-177c-1 41-23 64-60 70L243 0h-38l-65-103H63V0H30v-248c88 3 205-21 203 71zM63-129c60-2 137 13 137-47 0-61-80-42-137-45v92" id="O"/><path d="M115-194c55 1 70 41 70 98S169 2 115 4C84 4 66-9 55-30l1 105H24l-1-265h31l2 30c10-21 28-34 59-34zm-8 174c40 0 45-34 45-75s-6-73-45-74c-42 0-51 32-51 76 0 43 10 73 51 73" id="P"/><g id="g"><use transform="matrix(0.05,0,0,0.05,0,0)" xlink:href="#O"/><use transform="matrix(0.05,0,0,0.05,12.950000000000001,0)" xlink:href="#D"/><use transform="matrix(0.05,0,0,0.05,22.950000000000003,0)" xlink:href="#P"/><use transform="matrix(0.05,0,0,0.05,32.95,0)" xlink:href="#N"/><use transform="matrix(0.05,0,0,0.05,42.95,0)" xlink:href="#A"/><use transform="matrix(0.05,0,0,0.05,51.95,0)" xlink:href="#B"/><use transform="matrix(0.05,0,0,0.05,55.900000000000006,0)" xlink:href="#F"/><use transform="matrix(0.05,0,0,0.05,60.900000000000006,0)" xlink:href="#N"/><use transform="matrix(0.05,0,0,0.05,70.9,0)" xlink:href="#H"/><use transform="matrix(0.05,0,0,0.05,76.85000000000001,0)" xlink:href="#B"/><use transform="matrix(0.05,0,0,0.05,80.80000000000001,0)" xlink:href="#D"/><use transform="matrix(0.05,0,0,0.05,90.80000000000001,0)" xlink:href="#A"/></g><path d="M143 4C61 4 22-44 18-125c-5-107 100-154 193-111 17 8 29 25 37 43l-32 9c-13-25-37-40-76-40-61 0-88 39-88 99 0 61 29 100 91 101 35 0 62-11 79-27v-45h-74v-28h105v86C228-13 192 4 143 4" id="Q"/><path d="M206 0h-36l-40-164L89 0H53L-1-190h32L70-26l43-164h34l41 164 42-164h31" id="R"/><path d="M179-190L93 31C79 59 56 82 12 73V49c39 6 53-20 64-50L1-190h34L92-34l54-156h33" id="S"/><g id="h"><use transform="matrix(0.05,0,0,0.05,0,0)" xlink:href="#Q"/><use transform="matrix(0.05,0,0,0.05,14,0)" xlink:href="#M"/><use transform="matrix(0.05,0,0,0.05,24,0)" xlink:href="#F"/><use transform="matrix(0.05,0,0,0.05,29,0)" xlink:href="#D"/><use transform="matrix(0.05,0,0,0.05,39,0)" xlink:href="#R"/><use transform="matrix(0.05,0,0,0.05,51.95,0)" xlink:href="#M"/><use transform="matrix(0.05,0,0,0.05,61.95,0)" xlink:href="#S"/><use transform="matrix(0.05,0,0,0.05,70.95,0)" xlink:href="#A"/></g><path fill="#e5e5e5" d="M212-179c-10-28-35-45-73-45-59 0-87 40-87 99 0 60 29 101 89 101 43 0 62-24 78-52l27 14C228-24 195 4 139 4 59 4 22-46 18-125c-6-104 99-153 187-111 19 9 31 26 39 46" id="T"/><path fill="#e5e5e5" d="M100-194c62-1 85 37 85 99 1 63-27 99-86 99S16-35 15-95c0-66 28-99 85-99zM99-20c44 1 53-31 53-75 0-43-8-75-51-75s-53 32-53 75 10 74 51 75" id="U"/><path fill="#e5e5e5" d="M114-163C36-179 61-72 57 0H25l-1-190h30c1 12-1 29 2 39 6-27 23-49 58-41v29" id="V"/><path fill="#e5e5e5" d="M100-194c63 0 86 42 84 106H49c0 40 14 67 53 68 26 1 43-12 49-29l28 8c-11 28-37 45-77 45C44 4 14-33 15-96c1-61 26-98 85-98zm52 81c6-60-76-77-97-28-3 7-6 17-6 28h103" id="W"/><g id="i"><use transform="matrix(0.08024691358024691,0,0,0.08024691358024691,0,0)" xlink:href="#T"/><use transform="matrix(0.08024691358024691,0,0,0.08024691358024691,20.78395061728395,0)" xlink:href="#U"/><use transform="matrix(0.08024691358024691,0,0,0.08024691358024691,36.83333333333333,0)" xlink:href="#V"/><use transform="matrix(0.08024691358024691,0,0,0.08024691358024691,46.3827160493827,0)" xlink:href="#W"/></g><g id="j"><use transform="matrix(0.05,0,0,0.05,0,0)" xlink:href="#O"/><use transform="matrix(0.05,0,0,0.05,12.950000000000001,0)" xlink:href="#D"/><use transform="matrix(0.05,0,0,0.05,22.950000000000003,0)" xlink:href="#P"/><use transform="matrix(0.05,0,0,0.05,32.95,0)" xlink:href="#N"/><use transform="matrix(0.05,0,0,0.05,42.95,0)" xlink:href="#A"/><use transform="matrix(0.05,0,0,0.05,51.95,0)" xlink:href="#B"/><use transform="matrix(0.05,0,0,0.05,55.900000000000006,0)" xlink:href="#F"/><use transform="matrix(0.05,0,0,0.05,60.900000000000006,0)" xlink:href="#N"/><use transform="matrix(0.05,0,0,0.05,70.9,0)" xlink:href="#H"/><use transform="matrix(0.05,0,0,0.05,76.85000000000001,0)" xlink:href="#B"/><use transform="matrix(0.05,0,0,0.05,80.80000000000001,0)" xlink:href="#D"/><use transform="matrix(0.05,0,0,0.05,90.80000000000001,0)" xlink:href="#A"/></g><g id="k"><use transform="matrix(0.05,0,0,0.05,0,0)" xlink:href="#Q"/><use transform="matrix(0.05,0,0,0.05,14,0)" xlink:href="#M"/><use transform="matrix(0.05,0,0,0.05,24,0)" xlink:href="#F"/><use transform="matrix(0.05,0,0,0.05,29,0)" xlink:href="#D"/><use transform="matrix(0.05,0,0,0.05,39,0)" xlink:href="#R"/><use transform="matrix(0.05,0,0,0.05,51.95,0)" xlink:href="#M"/><use transform="matrix(0.05,0,0,0.05,61.95,0)" xlink:href="#S"/><use transform="matrix(0.05,0,0,0.05,70.95,0)" xlink:href="#A"/></g><path d="M30-248c118-7 216 8 213 122C240-48 200 0 122 0H30v-248zM63-27c89 8 146-16 146-99s-60-101-146-95v194" id="X"/><g id="l"><use transform="matrix(0.05,0,0,0.05,0,0)" xlink:href="#X"/><use transform="matrix(0.05,0,0,0.05,12.950000000000001,0)" xlink:href="#M"/><use transform="matrix(0.05,0,0,0.05,22.950000000000003,0)" xlink:href="#F"/><use transform="matrix(0.05,0,0,0.05,27.950000000000003,0)" xlink:href="#M"/></g><path d="M205 0l-28-72H64L36 0H1l101-248h38L239 0h-34zm-38-99l-47-123c-12 45-31 82-46 123h93" id="Y"/><g id="m"><use transform="matrix(0.05,0,0,0.05,0,0)" xlink:href="#Y"/><use transform="matrix(0.05,0,0,0.05,12,0)" xlink:href="#J"/><use transform="matrix(0.05,0,0,0.05,21,0)" xlink:href="#J"/><use transform="matrix(0.05,0,0,0.05,30,0)" xlink:href="#D"/><use transform="matrix(0.05,0,0,0.05,40,0)" xlink:href="#A"/><use transform="matrix(0.05,0,0,0.05,49,0)" xlink:href="#A"/></g><path fill="#e5e5e5" d="M33 0v-248h34V0H33" id="Z"/><path fill="#e5e5e5" d="M117-194c89-4 53 116 60 194h-32v-121c0-31-8-49-39-48C34-167 62-67 57 0H25l-1-190h30c1 10-1 24 2 32 11-22 29-35 61-36" id="aa"/><path fill="#e5e5e5" d="M101-234c-31-9-42 10-38 44h38v23H63V0H32v-167H5v-23h27c-7-52 17-82 69-68v24" id="ab"/><path fill="#e5e5e5" d="M141-36C126-15 110 5 73 4 37 3 15-17 15-53c-1-64 63-63 125-63 3-35-9-54-41-54-24 1-41 7-42 31l-33-3c5-37 33-52 76-52 45 0 72 20 72 64v82c-1 20 7 32 28 27v20c-31 9-61-2-59-35zM48-53c0 20 12 33 32 33 41-3 63-29 60-74-43 2-92-5-92 41" id="ac"/><path fill="#e5e5e5" d="M135-143c-3-34-86-38-87 0 15 53 115 12 119 90S17 21 10-45l28-5c4 36 97 45 98 0-10-56-113-15-118-90-4-57 82-63 122-42 12 7 21 19 24 35" id="ad"/><path fill="#e5e5e5" d="M59-47c-2 24 18 29 38 22v24C64 9 27 4 27-40v-127H5v-23h24l9-43h21v43h35v23H59v120" id="ae"/><path fill="#e5e5e5" d="M84 4C-5 8 30-112 23-190h32v120c0 31 7 50 39 49 72-2 45-101 50-169h31l1 190h-30c-1-10 1-25-2-33-11 22-28 36-60 37" id="af"/><path fill="#e5e5e5" d="M96-169c-40 0-48 33-48 73s9 75 48 75c24 0 41-14 43-38l32 2c-6 37-31 61-74 61-59 0-76-41-82-99-10-93 101-131 147-64 4 7 5 14 7 22l-32 3c-4-21-16-35-41-35" id="ag"/><g id="n"><use transform="matrix(0.08024691358024691,0,0,0.08024691358024691,0,0)" xlink:href="#Z"/><use transform="matrix(0.08024691358024691,0,0,0.08024691358024691,8.024691358024691,0)" xlink:href="#aa"/><use transform="matrix(0.08024691358024691,0,0,0.08024691358024691,24.074074074074076,0)" xlink:href="#ab"/><use transform="matrix(0.08024691358024691,0,0,0.08024691358024691,32.098765432098766,0)" xlink:href="#V"/><use transform="matrix(0.08024691358024691,0,0,0.08024691358024691,41.64814814814815,0)" xlink:href="#ac"/><use transform="matrix(0.08024691358024691,0,0,0.08024691358024691,57.697530864197525,0)" xlink:href="#ad"/><use transform="matrix(0.08024691358024691,0,0,0.08024691358024691,72.14197530864197,0)" xlink:href="#ae"/><use transform="matrix(0.08024691358024691,0,0,0.08024691358024691,80.16666666666667,0)" xlink:href="#V"/><use transform="matrix(0.08024691358024691,0,0,0.08024691358024691,89.71604938271605,0)" xlink:href="#af"/><use transform="matrix(0.08024691358024691,0,0,0.08024691358024691,105.76543209876543,0)" xlink:href="#ag"/><use transform="matrix(0.08024691358024691,0,0,0.08024691358024691,120.20987654320987,0)" xlink:href="#ae"/><use transform="matrix(0.08024691358024691,0,0,0.08024691358024691,128.23456790123456,0)" xlink:href="#af"/><use transform="matrix(0.08024691358024691,0,0,0.08024691358024691,144.28395061728395,0)" xlink:href="#V"/><use transform="matrix(0.08024691358024691,0,0,0.08024691358024691,153.83333333333334,0)" xlink:href="#W"/></g><path d="M212-179c-10-28-35-45-73-45-59 0-87 40-87 99 0 60 29 101 89 101 43 0 62-24 78-52l27 14C228-24 195 4 139 4 59 4 22-46 18-125c-6-104 99-153 187-111 19 9 31 26 39 46" id="ah"/><path d="M24 0v-261h32V0H24" id="ai"/><g id="o"><use transform="matrix(0.05,0,0,0.05,0,0)" xlink:href="#ah"/><use transform="matrix(0.05,0,0,0.05,12.950000000000001,0)" xlink:href="#N"/><use transform="matrix(0.05,0,0,0.05,22.950000000000003,0)" xlink:href="#C"/><use transform="matrix(0.05,0,0,0.05,32.95,0)" xlink:href="#F"/><use transform="matrix(0.05,0,0,0.05,37.95,0)" xlink:href="#H"/><use transform="matrix(0.05,0,0,0.05,43.900000000000006,0)" xlink:href="#N"/><use transform="matrix(0.05,0,0,0.05,53.900000000000006,0)" xlink:href="#ai"/><use transform="matrix(0.05,0,0,0.05,57.85,0)" xlink:href="#ai"/><use transform="matrix(0.05,0,0,0.05,61.80000000000001,0)" xlink:href="#D"/><use transform="matrix(0.05,0,0,0.05,71.80000000000001,0)" xlink:href="#H"/><use transform="matrix(0.05,0,0,0.05,77.75000000000001,0)" xlink:href="#A"/></g><path d="M266 0h-40l-56-210L115 0H75L2-248h35L96-30l15-64 43-154h32l59 218 59-218h35" id="aj"/><path d="M115-194c53 0 69 39 70 98 0 66-23 100-70 100C84 3 66-7 56-30L54 0H23l1-261h32v101c10-23 28-34 59-34zm-8 174c40 0 45-34 45-75 0-40-5-75-45-74-42 0-51 32-51 76 0 43 10 73 51 73" id="ak"/><g id="p"><use transform="matrix(0.05,0,0,0.05,0,0)" xlink:href="#aj"/><use transform="matrix(0.05,0,0,0.05,16.599999999999998,0)" xlink:href="#D"/><use transform="matrix(0.05,0,0,0.05,26.599999999999994,0)" xlink:href="#ak"/></g><path d="M87 75C49 33 22-17 22-94c0-76 28-126 65-167h31c-38 41-64 92-64 168S80 34 118 75H87" id="al"/><path d="M197 0v-115H63V0H30v-248h33v105h134v-105h34V0h-34" id="am"/><path d="M127-220V0H93v-220H8v-28h204v28h-85" id="an"/><path d="M30-248c87 1 191-15 191 75 0 78-77 80-158 76V0H30v-248zm33 125c57 0 124 11 124-50 0-59-68-47-124-48v98" id="ao"/><path d="M33-261c38 41 65 92 65 168S71 34 33 75H2C39 34 66-17 66-93S39-220 2-261h31" id="ap"/><g id="q"><use transform="matrix(0.05,0,0,0.05,0,0)" xlink:href="#al"/><use transform="matrix(0.05,0,0,0.05,5.95,0)" xlink:href="#am"/><use transform="matrix(0.05,0,0,0.05,18.900000000000002,0)" xlink:href="#an"/><use transform="matrix(0.05,0,0,0.05,29.85,0)" xlink:href="#an"/><use transform="matrix(0.05,0,0,0.05,40.800000000000004,0)" xlink:href="#ao"/><use transform="matrix(0.05,0,0,0.05,52.800000000000004,0)" xlink:href="#ap"/></g><g id="r"><use transform="matrix(0.05,0,0,0.05,0,0)" xlink:href="#X"/><use transform="matrix(0.05,0,0,0.05,12.950000000000001,0)" xlink:href="#M"/><use transform="matrix(0.05,0,0,0.05,22.950000000000003,0)" xlink:href="#F"/><use transform="matrix(0.05,0,0,0.05,27.950000000000003,0)" xlink:href="#M"/><use transform="matrix(0.05,0,0,0.05,37.95,0)" xlink:href="#ak"/><use transform="matrix(0.05,0,0,0.05,47.95,0)" xlink:href="#M"/><use transform="matrix(0.05,0,0,0.05,57.95,0)" xlink:href="#A"/><use transform="matrix(0.05,0,0,0.05,66.95,0)" xlink:href="#D"/></g><g id="s"><use transform="matrix(0.05,0,0,0.05,0,0)" xlink:href="#G"/><use transform="matrix(0.05,0,0,0.05,12,0)" xlink:href="#D"/><use transform="matrix(0.05,0,0,0.05,22,0)" xlink:href="#H"/><use transform="matrix(0.05,0,0,0.05,27.950000000000003,0)" xlink:href="#I"/><use transform="matrix(0.05,0,0,0.05,36.95,0)" xlink:href="#B"/><use transform="matrix(0.05,0,0,0.05,40.900000000000006,0)" xlink:href="#J"/><use transform="matrix(0.05,0,0,0.05,49.900000000000006,0)" xlink:href="#D"/></g><g id="t"><use transform="matrix(0.05,0,0,0.05,0,0)" xlink:href="#G"/><use transform="matrix(0.05,0,0,0.05,12,0)" xlink:href="#D"/><use transform="matrix(0.05,0,0,0.05,22,0)" xlink:href="#H"/><use transform="matrix(0.05,0,0,0.05,27.950000000000003,0)" xlink:href="#I"/><use transform="matrix(0.05,0,0,0.05,36.95,0)" xlink:href="#B"/><use transform="matrix(0.05,0,0,0.05,40.900000000000006,0)" xlink:href="#J"/><use transform="matrix(0.05,0,0,0.05,49.900000000000006,0)" xlink:href="#D"/><use transform="matrix(0.05,0,0,0.05,59.900000000000006,0)" xlink:href="#A"/></g><g id="u"><use transform="matrix(0.05,0,0,0.05,0,0)" xlink:href="#K"/><use transform="matrix(0.05,0,0,0.05,5,0)" xlink:href="#C"/><use transform="matrix(0.05,0,0,0.05,15,0)" xlink:href="#F"/><use transform="matrix(0.05,0,0,0.05,20,0)" xlink:href="#D"/><use transform="matrix(0.05,0,0,0.05,30,0)" xlink:href="#H"/><use transform="matrix(0.05,0,0,0.05,35.95,0)" xlink:href="#L"/><use transform="matrix(0.05,0,0,0.05,40.95,0)" xlink:href="#M"/><use transform="matrix(0.05,0,0,0.05,50.95,0)" xlink:href="#J"/><use transform="matrix(0.05,0,0,0.05,59.95,0)" xlink:href="#D"/><use transform="matrix(0.05,0,0,0.05,69.95,0)" xlink:href="#A"/></g><path fill="#fff" d="M182-130c37 4 62 22 62 59C244 23 116-4 24 0v-248c84 5 203-23 205 63 0 31-19 50-47 55zM76-148c40-3 101 13 101-30 0-44-60-28-101-31v61zm0 110c48-3 116 14 116-37 0-48-69-32-116-35v72" id="aq"/><path fill="#fff" d="M110-194c64 0 96 36 96 99 0 64-35 99-97 99-61 0-95-36-95-99 0-62 34-99 96-99zm-1 164c35 0 45-28 45-65 0-40-10-65-43-65-34 0-45 26-45 65 0 36 10 65 43 65" id="ar"/><path fill="#fff" d="M115-3C79 11 28 4 28-45v-112H4v-33h27l15-45h31v45h36v33H77v99c-1 23 16 31 38 25v30" id="as"/><path fill="#fff" d="M137-138c1-29-70-34-71-4 15 46 118 7 119 86 1 83-164 76-172 9l43-7c4 19 20 25 44 25 33 8 57-30 24-41C81-84 22-81 20-136c-2-80 154-74 161-7" id="at"/><path fill="#fff" d="M135-150c-39-12-60 13-60 57V0H25l-1-190h47c2 13-1 29 3 40 6-28 27-53 61-41v41" id="au"/><path fill="#fff" d="M133-34C117-15 103 5 69 4 32 3 11-16 11-54c-1-60 55-63 116-61 1-26-3-47-28-47-18 1-26 9-28 27l-52-2c7-38 36-58 82-57s74 22 75 68l1 82c-1 14 12 18 25 15v27c-30 8-71 5-69-32zm-48 3c29 0 43-24 42-57-32 0-66-3-65 30 0 17 8 27 23 27" id="av"/><path fill="#fff" d="M135-194c53 0 70 44 70 98 0 56-19 98-73 100-31 1-45-17-59-34 3 33 2 69 2 105H25l-1-265h48c2 10 0 23 3 31 11-24 29-35 60-35zM114-30c33 0 39-31 40-66 0-38-9-64-40-64-56 0-55 130 0 130" id="aw"/><path fill="#fff" d="M185-48c-13 30-37 53-82 52C43 2 14-33 14-96s30-98 90-98c62 0 83 45 84 108H66c0 31 8 55 39 56 18 0 30-7 34-22zm-45-69c5-46-57-63-70-21-2 6-4 13-4 21h74" id="ax"/><g id="v"><use transform="matrix(0.05,0,0,0.05,0,0)" xlink:href="#aq"/><use transform="matrix(0.05,0,0,0.05,12.950000000000001,0)" xlink:href="#ar"/><use transform="matrix(0.05,0,0,0.05,23.900000000000002,0)" xlink:href="#ar"/><use transform="matrix(0.05,0,0,0.05,34.85,0)" xlink:href="#as"/><use transform="matrix(0.05,0,0,0.05,40.800000000000004,0)" xlink:href="#at"/><use transform="matrix(0.05,0,0,0.05,50.800000000000004,0)" xlink:href="#as"/><use transform="matrix(0.05,0,0,0.05,56.75,0)" xlink:href="#au"/><use transform="matrix(0.05,0,0,0.05,63.75,0)" xlink:href="#av"/><use transform="matrix(0.05,0,0,0.05,73.75,0)" xlink:href="#aw"/><use transform="matrix(0.05,0,0,0.05,84.7,0)" xlink:href="#aw"/><use transform="matrix(0.05,0,0,0.05,95.65,0)" xlink:href="#ax"/><use transform="matrix(0.05,0,0,0.05,105.65,0)" xlink:href="#au"/></g><path fill="#e5e5e5" d="M160-131c35 5 61 23 61 61C221 17 115-2 30 0v-248c76 3 177-17 177 60 0 33-19 50-47 57zm-97-11c50-1 110 9 110-42 0-47-63-36-110-37v79zm0 115c55-2 124 14 124-45 0-56-70-42-124-44v89" id="ay"/><path fill="#e5e5e5" d="M115-194c55 1 70 41 70 98S169 2 115 4C84 4 66-9 55-30l1 105H24l-1-265h31l2 30c10-21 28-34 59-34zm-8 174c40 0 45-34 45-75s-6-73-45-74c-42 0-51 32-51 76 0 43 10 73 51 73" id="az"/><path fill="#e5e5e5" d="M24-231v-30h32v30H24zM24 0v-190h32V0H24" id="aA"/><path fill="#e5e5e5" d="M177-190C167-65 218 103 67 71c-23-6-38-20-44-43l32-5c15 47 100 32 89-28v-30C133-14 115 1 83 1 29 1 15-40 15-95c0-56 16-97 71-98 29-1 48 16 59 35 1-10 0-23 2-32h30zM94-22c36 0 50-32 50-73 0-42-14-75-50-75-39 0-46 34-46 75s6 73 46 73" id="aB"/><g id="w"><use transform="matrix(0.08024691358024691,0,0,0.08024691358024691,0,0)" xlink:href="#ay"/><use transform="matrix(0.08024691358024691,0,0,0.08024691358024691,19.25925925925926,0)" xlink:href="#U"/><use transform="matrix(0.08024691358024691,0,0,0.08024691358024691,35.308641975308646,0)" xlink:href="#U"/><use transform="matrix(0.08024691358024691,0,0,0.08024691358024691,51.358024691358025,0)" xlink:href="#ae"/><use transform="matrix(0.08024691358024691,0,0,0.08024691358024691,59.382716049382715,0)" xlink:href="#ad"/><use transform="matrix(0.08024691358024691,0,0,0.08024691358024691,73.82716049382717,0)" xlink:href="#ae"/><use transform="matrix(0.08024691358024691,0,0,0.08024691358024691,81.85185185185186,0)" xlink:href="#V"/><use transform="matrix(0.08024691358024691,0,0,0.08024691358024691,91.40123456790124,0)" xlink:href="#ac"/><use transform="matrix(0.08024691358024691,0,0,0.08024691358024691,107.45061728395063,0)" xlink:href="#az"/><use transform="matrix(0.08024691358024691,0,0,0.08024691358024691,123.5,0)" xlink:href="#az"/><use transform="matrix(0.08024691358024691,0,0,0.08024691358024691,139.5493827160494,0)" xlink:href="#aA"/><use transform="matrix(0.08024691358024691,0,0,0.08024691358024691,145.88888888888889,0)" xlink:href="#aa"/><use transform="matrix(0.08024691358024691,0,0,0.08024691358024691,161.93827160493828,0)" xlink:href="#aB"/></g><path fill="#e5e5e5" d="M197 0v-115H63V0H30v-248h33v105h134v-105h34V0h-34" id="aC"/><g id="x"><use transform="matrix(0.08024691358024691,0,0,0.08024691358024691,0,0)" xlink:href="#aC"/><use transform="matrix(0.08024691358024691,0,0,0.08024691358024691,20.78395061728395,0)" xlink:href="#U"/><use transform="matrix(0.08024691358024691,0,0,0.08024691358024691,36.83333333333333,0)" xlink:href="#ad"/><use transform="matrix(0.08024691358024691,0,0,0.08024691358024691,51.27777777777777,0)" xlink:href="#ae"/></g></defs></g></svg>